<?xml version="1.0" encoding="utf-8"?>
<!-- Generator: Adobe Illustrator 27.2.0, SVG Export Plug-In . SVG Version: 6.00 Build 0)  -->
<svg version="1.1" id="Lager_1" xmlns="http://www.w3.org/2000/svg" xmlns:xlink="http://www.w3.org/1999/xlink" x="0px" y="0px"
	 viewBox="0 0 100 100" style="enable-background:new 0 0 100 100;" xml:space="preserve">
<style type="text/css">
	.st0{fill:#1C1B1A;}
	.st1{fill:#FFFFFF;}
</style>
<g>
	<g>
		<path class="st0" d="M8,73.2c0,6.3,4,12.1,10.1,14.3L50,99l31.9-11.5C88,85.3,92,79.5,92,73.2V0H8V73.2z"/>
	</g>
	<g>
		<path class="st1" d="M63.3,51.4c4.2,1.6,7.3,2.9,7.6,3.1c-1.7-2.1-2.9-4.4-4-6.6c-2.4-5.2-3.4-10.5-2.9-15.6c0-0.1,0-0.2,0-0.4
			c0.1-0.6,0.2-1.2,0.3-1.9c0.1-0.4,0.2-0.9,0.3-1.3c0.1-0.3,0.1-0.5,0.2-0.8c1.1-3.8,3.1-7.5,6-10.8L65.9,18l-0.7,0.6
			C56.9,27.6,56.3,40.4,63.3,51.4"/>
		<path class="st1" d="M49.4,21.4c-5.9,6.3-7.2,16.9-3.8,25.9c0.1,0,0.2,0,0.4,0c1.7,0,3.5,0.3,5.5,0.7c-3.9-9.5-2.7-20.2,3.4-27.9
			l-5,0.9L49.4,21.4z"/>
		<path class="st1" d="M53.8,48.4c2.2,0.6,4.5,1.3,6.5,2c-5.9-10.7-5-23,2.5-31.7L58,19.5l-0.6,0.6C50.5,27.4,49.2,38.7,53.8,48.4"
			/>
		<path class="st1" d="M41.8,22.4l-0.3,0.4c-5.4,5.9-6.4,17.2-3.1,25.8c1.3-0.6,3-1,5.2-1.2c-3-8.8-2-19,3.3-25.9L41.8,22.4z"/>
		<path class="st1" d="M33.5,24.1c-6.4,7.2-5.5,23,0,29.9l0.2,0.3c0.1-0.9,0.5-3,2.9-4.8c-3.2-8.2-3.1-19.2,2.2-26.6l-5.1,0.9
			L33.5,24.1z"/>
	</g>
	<path class="st1" d="M28.6,14c10.1-3.3,10.5,7.2,21.5,1.3V9.5c-13,8.7-6.3-8-24.8,5.4C26.5,14.7,28.6,14,28.6,14z"/>
	<path class="st1" d="M68.2,69.4H31.7c-5.7,0-9.5-3.4-10.5-9.1l-0.9,0.2c0.2,3.3,1.1,6.1,2.6,8c1.9,2.2,4.5,3.3,8.1,3.3h37.9
		c3.7,0,6.4-1.3,8.3-3.6c1.7-2.1,2.3-5.1,2.3-7.7l-0.8-0.1C77.9,65.1,74.6,69.4,68.2,69.4"/>
	<path class="st1" d="M82.1,59c-0.2-1.1-0.4-2.1-0.7-3c-0.6-1.9-1.8-5.7-2.1-6.4c-0.3-1,0.1-1.5,0.1-1.5s0.6,1,1.7,0.7
		c1-0.3,1.1-1.4,0.8-2.1c-0.5-1.1-2.1-1.7-3.3-0.7c-1.9,1.4-1.3,3.6-0.7,6.8c0.3,2.1,0,3.8-0.7,5.2L82.1,59z"/>
	<path class="st1" d="M21.7,43.4c0.5,0,0.9,0.4,0.9,0.9s-0.4,0.9-0.9,0.9s-0.9-0.4-0.9-0.9C20.8,43.8,21.2,43.4,21.7,43.4
		 M19.2,47.7c0.8,0.7,0.3,1.2-0.6,4.9c-0.5,2.1-0.9,4.3-1,6.4l5.2-0.9c-0.7-1.4-1-2.9-0.8-4.7c0.3-3.1,1.1-7.9,3.5-10.7
		c0,0-2.2,0.2-4.2-0.4c-2.1-0.7-2.7-0.9-4-0.5C16,42.1,15.6,44,15.6,44s3.5-1.5,3.7,0.9c0.2,1.8-3,0.9-3,0.9l0.6,1.9
		C17,47.7,18.5,47,19.2,47.7"/>
	<path class="st1" d="M82.3,60.8l-0.8-0.1c-0.1,3-0.8,6.1-2.7,8.6c-2.2,2.8-5.6,4.4-9.9,4.4H31.1c-4.2,0-7.4-1.4-9.6-4.1
		c-2.1-2.5-2.8-5.8-3-8.9l-0.8,0.1c-0.1,8.5,3.2,15.4,13.7,15.4h37.5C79.9,76.3,82.8,68.2,82.3,60.8"/>
	<path class="st1" d="M66.6,66.3c-1.3,0-2.4-0.5-3.3-1.3c-0.9,0.8-2.1,1.3-3.3,1.3c-1.3,0-2.4-0.5-3.3-1.3c-0.9,0.8-2.1,1.3-3.3,1.3
		S51,65.8,50.1,65c-0.9,0.8-2.1,1.3-3.3,1.3c-1.3,0-2.4-0.5-3.3-1.3c-0.9,0.8-2.1,1.3-3.3,1.3s-2.4-0.5-3.3-1.3
		c-0.9,0.8-2.1,1.3-3.3,1.3c-2.5,0-4.7-1.9-5.1-4.4c-1.8-0.2-3.3-1-4.4-2.2L23,59.9c0.6,3.1,2.5,7.5,8.7,7.5h36.5
		c5.6,0,8-3.7,8.7-7.5l-0.8-0.1c-1.2,1.3-2.7,2.1-4.4,2.2C71.3,64.5,69.2,66.3,66.6,66.3"/>
	<path class="st1" d="M66.6,60.1c0.6,0,1,0.5,1,1c0,0.6-0.5,1-1,1s-1-0.5-1-1S66.1,60.1,66.6,60.1 M66.6,64.5c1.8,0,3.2-1.5,3.2-3.2
		c0-1.8-1.5-3.2-3.2-3.2c-0.8,0-1.6,0.3-2.1,0.8c0.4,0.8,0.7,1.6,0.7,2.4c0,0.9-0.3,1.8-0.7,2.4C65.1,64.2,65.8,64.5,66.6,64.5"/>
	<path class="st1" d="M60,60.1c0.6,0,1,0.5,1,1c0,0.6-0.5,1-1,1c-0.6,0-1-0.5-1-1S59.5,60.1,60,60.1 M60,64.5c1.8,0,3.2-1.5,3.2-3.2
		c0-1.8-1.5-3.2-3.2-3.2c-0.8,0-1.6,0.3-2.1,0.8c0.4,0.8,0.7,1.6,0.7,2.4c0,0.9-0.3,1.8-0.7,2.4C58.5,64.2,59.2,64.5,60,64.5"/>
	<path class="st1" d="M53.4,60.1c0.6,0,1,0.5,1,1c0,0.6-0.5,1-1,1c-0.6,0-1-0.5-1-1C52.3,60.6,52.8,60.1,53.4,60.1 M53.4,64.5
		c1.8,0,3.2-1.5,3.2-3.2c0-1.8-1.5-3.2-3.2-3.2c-0.8,0-1.6,0.3-2.1,0.8c0.4,0.7,0.7,1.6,0.7,2.4c0,0.9-0.3,1.8-0.7,2.4
		C51.9,64.2,52.5,64.5,53.4,64.5"/>
	<path class="st1" d="M46.7,60.1c0.6,0,1,0.5,1,1c0,0.6-0.5,1-1,1c-0.6,0-1-0.5-1-1C45.6,60.6,46.1,60.1,46.7,60.1 M46.7,64.5
		c1.8,0,3.2-1.5,3.2-3.2c0-1.8-1.5-3.2-3.2-3.2c-0.8,0-1.6,0.3-2.1,0.8c0.4,0.8,0.7,1.6,0.7,2.4c0,0.9-0.3,1.8-0.7,2.4
		C45.1,64.2,45.8,64.5,46.7,64.5"/>
	<path class="st1" d="M40,60.1c0.6,0,1,0.5,1,1c0,0.6-0.5,1-1,1c-0.6,0-1-0.5-1-1S39.5,60.1,40,60.1 M40,64.5c1.8,0,3.2-1.5,3.2-3.2
		c0-1.8-1.5-3.2-3.2-3.2c-0.8,0-1.6,0.3-2.1,0.8c0.4,0.8,0.7,1.6,0.7,2.4c0,0.9-0.3,1.8-0.7,2.4C38.5,64.2,39.2,64.5,40,64.5"/>
	<path class="st1" d="M33.4,62.1c-0.6,0-1-0.5-1-1c0-0.6,0.5-1,1-1c0.6,0,1,0.5,1,1S34,62.1,33.4,62.1 M33.4,57.9
		c-1.8,0-3.2,1.5-3.2,3.2s1.5,3.2,3.2,3.2c1.8,0,3.2-1.5,3.2-3.2C36.6,59.3,35.2,57.9,33.4,57.9"/>
</g>
</svg>
